<svg xmlns="http://www.w3.org/2000/svg" viewBox="0 0 32 32" fill="none">
  <circle cx="16" cy="16" r="14.5" stroke="#d4a017" stroke-width="1.5"/>
  <circle cx="16" cy="16" r="12.5" stroke="#d4a017" stroke-width="0.75"/>
  <line x1="16" y1="5" x2="16" y2="27" stroke="#d4a017" stroke-width="1.2" stroke-linecap="round"/>
  <line x1="5" y1="16" x2="27" y2="16" stroke="#d4a017" stroke-width="1.2" stroke-linecap="round"/>
  <line x1="8.2" y1="8.2" x2="23.8" y2="23.8" stroke="#d4a017" stroke-width="0.8" stroke-linecap="round"/>
  <line x1="23.8" y1="8.2" x2="8.2" y2="23.8" stroke="#d4a017" stroke-width="0.8" stroke-linecap="round"/>
  <path d="M16 5Q12.5 11 8.2 8.2" stroke="#d4a017" stroke-width="0.7" fill="none"/>
  <path d="M16 5Q19.5 11 23.8 8.2" stroke="#d4a017" stroke-width="0.7" fill="none"/>
  <path d="M27 16Q21 12.5 23.8 8.2" stroke="#d4a017" stroke-width="0.7" fill="none"/>
  <path d="M27 16Q21 19.5 23.8 23.8" stroke="#d4a017" stroke-width="0.7" fill="none"/>
  <path d="M16 27Q19.5 21 23.8 23.8" stroke="#d4a017" stroke-width="0.7" fill="none"/>
  <path d="M16 27Q12.5 21 8.2 23.8" stroke="#d4a017" stroke-width="0.7" fill="none"/>
  <path d="M5 16Q11 19.5 8.2 23.8" stroke="#d4a017" stroke-width="0.7" fill="none"/>
  <path d="M5 16Q11 12.5 8.2 8.2" stroke="#d4a017" stroke-width="0.7" fill="none"/>
  <circle cx="16" cy="16" r="2.5" stroke="#d4a017" stroke-width="1" fill="#d4a017" fill-opacity="0.2"/>
</svg>
